<svg xmlns="http://www.w3.org/2000/svg" viewBox="0 0 1920 691.78"><defs><style>.cls-1{fill:#f0f696;}</style></defs><g id="Layer_2" data-name="Layer 2"><g id="Layer_1-2" data-name="Layer 1"><path class="cls-1" d="M1920,0V691.78H0V37.2C16.21,56,31.13,74.31,64.76,83.56c69.59,19.14,94.72-34.79,164.41-18.89,74.59,17,65,83.2,148.5,121.62,89,40.93,134.56-18.18,221.11,26.17,69.31,35.52,53.3,80.22,119.88,109.69,85.7,37.92,132.67-27.1,214.72,12,67.74,32.26,56.93,86.66,123.88,104.78q1.79.48,3.54.9c68.29-36.77,68.14-100.41,152.31-127.42,74.16-23.8,94.39,19.16,162.33-7,87.46-33.67,74.81-112.87,160.5-143.15,70.75-25,101.51,21.17,161.71-13.28,53.21-30.45,60-84.15,103.91-86,34.61-1.47,49,31,73.78,22.82C1905.89,75.68,1905.52,19.38,1920,0Z"/></g></g></svg>