<svg xmlns="http://www.w3.org/2000/svg" viewBox="0 0 1920 264.39"><defs><style>.cls-1{fill:#fcb1b1;}</style></defs><g id="Layer_2" data-name="Layer 2"><g id="Layer_1-2" data-name="Layer 1"><path class="cls-1" d="M1920,0V219.26c-14.21-18.63-32.4-38.73-63.5-44.43-52.64-9.65-69.26,35.36-139,39-75.75,4-89.09-47.43-157-41-71.85,6.8-76.2,66.14-147,76-75.78,10.55-90.28-54.72-182-61-97.69-6.69-119.35,64.75-216,54-77.41-8.61-78.3-56.08-151-60-93.58-5-114.42,72.41-205,65-74.78-6.12-84-60.82-153-54-61,6-89.13,52.27-130,36-32.18-12.81-32-48.35-58-51-37.7-3.85-62.46,68.31-87,62-26.38-6.78-22-96.39-34-97s-18.4,89.21-39,91c-23.28,2-44.23-110.23-63-108-19.23,2.28-16.43,122.38-28,123-12,.64-28.94-128.6-34-128s17.92,133.28-9,143a8.93,8.93,0,0,1-2.22.5,10.88,10.88,0,0,1-1.14.06H0V0Z"/></g></g></svg>