<svg xmlns="http://www.w3.org/2000/svg" viewBox="0 0 838 764"><defs><style>.cls-1{fill:#fcb1b1;}.cls-2{fill:#ff7bac;}.cls-3{fill:#f5b5fc;}</style></defs><g id="Layer_2" data-name="Layer 2"><g id="Layer_1-2" data-name="Layer 1"><circle class="cls-1" cx="379.81" cy="66.81" r="23.19"/><path class="cls-2" d="M518.63,572.84a23.19,23.19,0,1,1-23.19-23.19A23.2,23.2,0,0,1,518.63,572.84Z"/><path class="cls-3" d="M221.63,345.84a23.19,23.19,0,1,1-23.19-23.19A23.2,23.2,0,0,1,221.63,345.84Z"/><path class="cls-2" d="M777.63,391.84a23.19,23.19,0,1,1-23.19-23.19A23.2,23.2,0,0,1,777.63,391.84Z"/><circle class="cls-3" cx="568.5" cy="143.5" r="62.5"/><circle class="cls-2" cx="260.5" cy="141.5" r="74.5"/><circle class="cls-1" cx="468" cy="398" r="120"/><circle class="cls-2" cx="231" cy="468" r="9"/><path class="cls-2" d="M659,17A39,39,0,1,1,584.88,0h70.24A39,39,0,0,1,659,17Z"/><path class="cls-1" d="M838,206v91h-.5a45.5,45.5,0,0,1,0-91Z"/><path class="cls-3" d="M838,542.11V672.89a104.5,104.5,0,1,1,0-130.78Z"/><circle class="cls-2" cx="690" cy="192" r="6"/><circle class="cls-3" cx="432.5" cy="184.5" r="7.5"/><circle class="cls-2" cx="341" cy="272" r="6"/><circle class="cls-2" cx="101" cy="141" r="10"/><circle class="cls-3" cx="767.5" cy="44.5" r="10.5"/><circle class="cls-2" cx="613" cy="493" r="7"/><circle class="cls-2" cx="593" cy="679" r="12"/><path class="cls-2" d="M157,7a19,19,0,0,1-38,0,18.72,18.72,0,0,1,1.34-7h35.32A18.72,18.72,0,0,1,157,7Z"/><circle class="cls-3" cx="233" cy="17" r="17"/><circle class="cls-2" cx="334" cy="596" r="32"/><circle class="cls-3" cx="153.5" cy="622.5" r="15.5"/><circle class="cls-3" cx="353.5" cy="744.5" r="19.5"/><circle class="cls-2" cx="38" cy="422" r="38"/></g></g></svg>